<svg width="1174" height="805" viewBox="0 0 1174 805" fill="none" xmlns="http://www.w3.org/2000/svg">
<rect width="1174" height="805" fill="white"/>
<g filter="url(#filter0_d_723_280)">
<rect x="133" y="69" width="908" height="668" rx="4" stroke="black" stroke-opacity="0.06" stroke-width="2" shape-rendering="crispEdges"/>
</g>
<path d="M586.494 102.727H586.5C638.363 102.727 677.3 128.815 703.3 167.995C729.309 207.19 742.364 259.482 742.401 311.801C742.439 364.121 729.46 416.412 703.469 455.607C677.488 494.787 638.514 520.875 586.501 520.876C534.639 520.424 495.778 493.961 469.871 454.508C443.954 415.04 431.013 362.578 431.05 310.221C431.088 257.863 444.105 205.666 470.038 166.726C495.962 127.801 534.783 102.127 586.494 102.727ZM495.473 157.734H494.85L494.985 158.342C496.324 164.371 496.666 175.606 496.271 187.576C495.876 199.531 494.749 212.152 493.175 220.927L494.149 221.149C496.389 213.08 502.678 198.69 512.786 186.328C522.896 173.964 536.761 163.702 554.152 163.702H631.014L493.211 469.68L493.167 469.778V469.885V474.402V474.902H493.667H672.412H673.04L672.899 474.29C671.561 468.49 671.219 457.371 671.67 445.458C672.121 433.559 673.36 420.943 675.158 412.172L674.19 411.926C671.724 420.003 665.32 434.396 655.155 446.758C644.989 459.124 631.124 469.385 613.733 469.385H536.871L675.124 163.408L675.168 163.31V163.202V158.234V157.734H674.668H495.473ZM586.5 528.5C657.805 528.5 711.319 501.38 747.001 460.673C782.675 419.977 800.5 365.73 800.5 311.5C800.5 257.27 782.675 203.023 747.001 162.327C711.319 121.62 657.805 94.5 586.5 94.5C515.195 94.5 461.681 121.62 425.999 162.327C390.325 203.023 372.5 257.27 372.5 311.5C372.5 365.73 390.325 419.977 425.999 460.673C461.681 501.38 515.195 528.5 586.5 528.5Z" fill="black" stroke="black"/>
<path d="M337.24 624.88H372.568V634H321.496V631.216L356.632 579.76H325.624V570.64H372.472V573.424L337.24 624.88ZM395.885 634V570.64H437.549V579.76H406.061V595.984H429.773V604.816H406.061V624.88H438.701V634H395.885ZM514.478 634H502.862L484.814 609.52H473.198V634H463.022V570.64H486.158C498.926 570.64 507.662 578.608 507.662 590.032C507.662 598.384 503.054 604.912 495.47 607.888L514.478 634ZM473.198 579.664V600.496H485.966C492.974 600.496 497.198 596.272 497.198 590.128C497.198 583.888 492.974 579.664 485.966 579.664H473.198ZM530.818 602.32C530.53 584.176 545.986 569.296 564.034 569.584C581.986 569.296 597.73 584.176 597.346 602.32C597.73 620.464 581.986 635.344 564.034 635.056C545.89 635.344 530.434 620.464 530.818 602.32ZM586.882 602.224C586.882 588.976 577.09 578.896 564.13 578.896C550.978 578.896 541.378 588.88 541.378 602.224C541.378 615.76 550.978 625.744 564.13 625.744C577.09 625.744 586.882 615.76 586.882 602.224ZM657.59 602.32C657.206 584.176 672.854 569.296 690.902 569.584C702.518 569.584 712.598 575.248 718.07 584.176L710.39 589.84C705.878 582.832 699.35 578.896 690.998 578.896C678.038 578.896 668.15 588.88 668.15 602.32C668.15 615.76 678.038 625.744 690.998 625.744C699.35 625.744 705.878 621.808 710.39 614.8L718.07 620.464C712.694 629.392 702.71 635.056 690.902 635.056C672.854 635.344 657.206 620.464 657.59 602.32ZM738.211 621.328L745.411 615.856C749.635 622 754.723 625.936 762.019 625.936C768.547 625.936 772.963 622.48 772.963 617.104C772.963 612.592 770.275 610.672 763.651 607.6L756.643 604.336C747.427 600.112 741.859 595.216 741.859 586.768C741.859 576.4 750.883 569.584 761.827 569.584C770.755 569.584 778.339 574.096 782.275 580.912L775.171 586.384C771.811 581.392 767.203 578.704 761.827 578.704C756.451 578.704 752.227 581.392 752.227 586.384C752.611 591.376 754.819 592.24 761.059 595.408L768.163 598.672C778.435 603.376 783.331 608.368 783.331 616.72C783.331 627.76 774.307 635.056 762.115 635.056C751.747 635.056 743.107 629.872 738.211 621.328ZM803.847 621.328L811.047 615.856C815.271 622 820.359 625.936 827.655 625.936C834.183 625.936 838.599 622.48 838.599 617.104C838.599 612.592 835.911 610.672 829.287 607.6L822.279 604.336C813.063 600.112 807.495 595.216 807.495 586.768C807.495 576.4 816.519 569.584 827.463 569.584C836.391 569.584 843.975 574.096 847.911 580.912L840.807 586.384C837.447 581.392 832.839 578.704 827.463 578.704C822.087 578.704 817.863 581.392 817.863 586.384C818.247 591.376 820.455 592.24 826.695 595.408L833.799 598.672C844.071 603.376 848.967 608.368 848.967 616.72C848.967 627.76 839.943 635.056 827.751 635.056C817.383 635.056 808.743 629.872 803.847 621.328Z" fill="black"/>
<path d="M210.936 699L209.244 695.04H198.552L196.86 699H192.792L203.268 674.844H204.564L215.04 699H210.936ZM207.876 691.764L203.916 681.936L199.92 691.764H207.876ZM232.161 699V675.24H247.425V678.66H235.977V685.752H245.409V689.208H235.977V699H232.161ZM252.741 691.584V681.324H256.485V691.872C256.485 694.32 258.177 695.904 260.481 695.904C262.677 695.904 264.369 694.32 264.369 691.872V681.324H268.149V691.584C268.149 696.336 264.801 699.396 260.481 699.396C256.053 699.396 252.741 696.336 252.741 691.584ZM275.972 699V672H279.752V699H275.972ZM287.738 699V672H291.518V699H287.738ZM311.816 681.324H315.848L307.244 701.016C305.768 704.364 303.788 705.876 300.764 705.876C299.792 705.876 298.82 705.768 297.848 705.516V702.312C298.964 702.42 299.648 702.456 299.936 702.456C301.7 702.456 302.924 701.844 303.788 699.864L304.508 698.208L297.452 681.324H301.52L306.596 694.176L311.816 681.324ZM320.459 689.172V685.968H329.315V689.172H320.459ZM336.578 699V675.24H344.03C351.806 675.24 356.954 680.064 356.954 687.084C356.954 693.996 351.77 699 344.03 699H336.578ZM340.394 695.58H343.994C349.502 695.58 353.03 692.052 353.03 687.084C353.03 682.044 349.538 678.696 343.994 678.696H340.394V695.58ZM376.083 681.324H380.115L371.511 701.016C370.035 704.364 368.055 705.876 365.031 705.876C364.059 705.876 363.087 705.768 362.115 705.516V702.312C363.231 702.42 363.915 702.456 364.203 702.456C365.967 702.456 367.191 701.844 368.055 699.864L368.775 698.208L361.719 681.324H365.787L370.863 694.176L376.083 681.324ZM401.493 687.948V699H397.713V688.452C397.713 686.004 396.165 684.348 393.861 684.348C391.521 684.348 389.829 686.04 389.829 688.452V699H386.049V681.324H389.577V683.052C390.909 681.648 392.673 680.928 394.869 680.928C399.009 680.928 401.493 683.736 401.493 687.948ZM423.316 688.308V699H419.788V697.02C418.492 698.568 416.548 699.396 414.136 699.396C410.428 699.396 407.98 697.344 407.98 694.284C407.98 691.224 410.5 689.244 414.496 689.244H419.5V688.092C419.5 685.644 418.132 684.312 415.72 684.312C413.74 684.312 412.3 685.176 410.824 686.94L408.628 684.708C410.392 682.152 413.02 680.928 416.08 680.928C420.436 680.928 423.316 683.556 423.316 688.308ZM419.5 692.304V691.98H414.964C412.948 691.98 411.832 692.7 411.832 694.14C411.832 695.616 413.092 696.48 414.928 696.48C417.484 696.48 419.5 694.716 419.5 692.304ZM457.629 687.948V699H453.813V688.488C453.813 686.004 452.409 684.384 450.141 684.384C447.837 684.384 446.253 686.04 446.253 688.308V699H442.473V688.488C442.473 686.04 441.033 684.384 438.765 684.384C436.461 684.384 434.877 686.04 434.877 688.488V699H431.097V681.324H434.625V682.98C435.885 681.684 437.613 680.928 439.737 680.928C442.185 680.928 444.057 681.972 445.101 683.7C446.397 682.008 448.593 680.928 451.077 680.928C455.145 680.928 457.629 683.736 457.629 687.948ZM465.398 699V681.324H469.178V699H465.398ZM464.714 674.736C464.714 673.332 465.866 672.216 467.306 672.216C468.71 672.216 469.862 673.332 469.862 674.736C469.862 676.14 468.71 677.22 467.306 677.22C465.866 677.22 464.714 676.14 464.714 674.736ZM476.048 690.144C475.94 685.068 480.332 680.856 485.408 680.928C488.684 680.928 491.312 682.476 492.86 685.032L490.196 687.12C488.936 685.32 487.352 684.42 485.444 684.42C482.276 684.42 479.9 686.94 479.9 690.144C479.9 693.384 482.276 695.904 485.444 695.904C487.316 695.904 488.9 695.004 490.196 693.24L492.86 695.292C491.276 697.848 488.612 699.396 485.408 699.396C480.188 699.396 476.048 695.292 476.048 690.144ZM499.584 705.408L499.944 695.184H504.336L502.644 705.408H499.584ZM523.579 687.12C523.435 680.316 529.303 674.736 536.071 674.844C540.427 674.844 544.207 676.968 546.259 680.316L543.379 682.44C541.687 679.812 539.239 678.336 536.107 678.336C531.247 678.336 527.539 682.08 527.539 687.12C527.539 692.16 531.247 695.904 536.107 695.904C539.239 695.904 541.687 694.428 543.379 691.8L546.259 693.924C544.243 697.272 540.499 699.396 536.071 699.396C529.303 699.504 523.435 693.924 523.579 687.12ZM553.092 699V672H556.872V699H553.092ZM578.898 688.308V699H575.37V697.02C574.074 698.568 572.13 699.396 569.718 699.396C566.01 699.396 563.562 697.344 563.562 694.284C563.562 691.224 566.082 689.244 570.078 689.244H575.082V688.092C575.082 685.644 573.714 684.312 571.302 684.312C569.322 684.312 567.882 685.176 566.406 686.94L564.21 684.708C565.974 682.152 568.602 680.928 571.662 680.928C576.018 680.928 578.898 683.556 578.898 688.308ZM575.082 692.304V691.98H570.546C568.53 691.98 567.414 692.7 567.414 694.14C567.414 695.616 568.674 696.48 570.51 696.48C573.066 696.48 575.082 694.716 575.082 692.304ZM585.023 695.976L587.183 693.6C588.731 695.22 590.279 696.12 592.151 696.12C593.771 696.12 594.995 695.436 594.995 694.14C594.995 693.096 594.239 692.664 592.511 691.944L590.711 691.188C587.579 689.892 586.103 688.524 586.103 686.04C586.103 682.872 588.731 680.928 592.331 680.928C594.887 680.928 596.903 681.828 598.451 683.664L596.399 686.004C595.283 684.852 593.807 684.204 592.259 684.204C590.783 684.204 589.847 684.78 589.847 685.896C589.847 686.796 590.459 687.264 592.187 687.984L593.879 688.668C597.227 690.072 598.703 691.512 598.703 693.996C598.703 695.688 598.091 697.02 596.831 697.992C595.571 698.928 594.023 699.396 592.151 699.396C589.127 699.396 586.607 698.028 585.023 695.976ZM603.926 695.976L606.086 693.6C607.634 695.22 609.182 696.12 611.054 696.12C612.674 696.12 613.898 695.436 613.898 694.14C613.898 693.096 613.142 692.664 611.414 691.944L609.614 691.188C606.482 689.892 605.006 688.524 605.006 686.04C605.006 682.872 607.634 680.928 611.234 680.928C613.79 680.928 615.806 681.828 617.354 683.664L615.302 686.004C614.186 684.852 612.71 684.204 611.162 684.204C609.686 684.204 608.75 684.78 608.75 685.896C608.75 686.796 609.362 687.264 611.09 687.984L612.782 688.668C616.13 690.072 617.606 691.512 617.606 693.996C617.606 695.688 616.994 697.02 615.734 697.992C614.474 698.928 612.926 699.396 611.054 699.396C608.03 699.396 605.51 698.028 603.926 695.976ZM623.513 689.172V685.968H632.369V689.172H623.513ZM657.524 692.088C657.524 696.084 654.464 699 649.82 699H639.632V675.24H647.948C652.232 675.24 655.076 677.904 655.076 681.576C655.076 683.412 654.392 684.924 653.096 686.04C655.868 686.94 657.524 689.172 657.524 692.088ZM647.588 678.588H643.376V684.996H647.588C649.928 684.996 651.26 683.736 651.26 681.756C651.26 679.776 649.928 678.588 647.588 678.588ZM653.672 691.98C653.672 689.712 652.124 688.272 649.496 688.272H643.376V695.652H649.496C652.124 695.652 653.672 694.248 653.672 691.98ZM678.194 688.308V699H674.666V697.02C673.37 698.568 671.426 699.396 669.014 699.396C665.306 699.396 662.858 697.344 662.858 694.284C662.858 691.224 665.378 689.244 669.374 689.244H674.378V688.092C674.378 685.644 673.01 684.312 670.598 684.312C668.618 684.312 667.178 685.176 665.702 686.94L663.506 684.708C665.27 682.152 667.898 680.928 670.958 680.928C675.314 680.928 678.194 683.556 678.194 688.308ZM674.378 692.304V691.98H669.842C667.826 691.98 666.71 692.7 666.71 694.14C666.71 695.616 667.97 696.48 669.806 696.48C672.362 696.48 674.378 694.716 674.378 692.304ZM684.318 695.976L686.478 693.6C688.026 695.22 689.574 696.12 691.446 696.12C693.066 696.12 694.29 695.436 694.29 694.14C694.29 693.096 693.534 692.664 691.806 691.944L690.006 691.188C686.874 689.892 685.398 688.524 685.398 686.04C685.398 682.872 688.026 680.928 691.626 680.928C694.182 680.928 696.198 681.828 697.746 683.664L695.694 686.004C694.578 684.852 693.102 684.204 691.554 684.204C690.078 684.204 689.142 684.78 689.142 685.896C689.142 686.796 689.754 687.264 691.482 687.984L693.174 688.668C696.522 690.072 697.998 691.512 697.998 693.996C697.998 695.688 697.386 697.02 696.126 697.992C694.866 698.928 693.318 699.396 691.446 699.396C688.422 699.396 685.902 698.028 684.318 695.976ZM720.789 691.404H707.613C708.081 694.284 710.349 696.048 713.373 696.048C715.209 696.048 716.937 695.364 718.521 693.96L720.321 696.552C718.305 698.46 715.965 699.396 713.265 699.396C707.865 699.396 703.761 695.4 703.761 690.18C703.653 685.104 707.901 680.82 712.905 680.928C717.585 680.928 721.077 684.42 721.077 689.028C721.077 689.784 720.969 690.576 720.789 691.404ZM707.685 688.452H717.297C717.261 685.752 715.245 684.132 712.761 684.132C710.277 684.132 708.261 685.824 707.685 688.452ZM741.356 672H745.172V699H741.644V696.48C740.348 698.316 738.08 699.396 735.452 699.396C730.484 699.396 726.812 695.4 726.812 690.18C726.704 685.032 730.556 680.82 735.452 680.928C737.9 680.928 740.024 681.864 741.356 683.484V672ZM741.428 690.18C741.428 686.364 738.836 684.384 736.1 684.384C733.076 684.384 730.664 686.76 730.664 690.144C730.664 693.528 732.968 695.94 736.1 695.94C738.872 695.94 741.428 694.032 741.428 690.18ZM764.581 687.12C764.437 680.316 770.305 674.736 777.073 674.844C781.429 674.844 785.209 676.968 787.261 680.316L784.381 682.44C782.689 679.812 780.241 678.336 777.109 678.336C772.249 678.336 768.541 682.08 768.541 687.12C768.541 692.16 772.249 695.904 777.109 695.904C780.241 695.904 782.689 694.428 784.381 691.8L787.261 693.924C785.245 697.272 781.501 699.396 777.073 699.396C770.305 699.504 764.437 693.924 764.581 687.12ZM792.654 694.248L795.354 692.196C796.938 694.5 798.846 695.976 801.582 695.976C804.03 695.976 805.686 694.68 805.686 692.664C805.686 690.972 804.678 690.252 802.194 689.1L799.566 687.876C796.11 686.292 794.022 684.456 794.022 681.288C794.022 677.4 797.406 674.844 801.51 674.844C804.858 674.844 807.702 676.536 809.178 679.092L806.514 681.144C805.254 679.272 803.526 678.264 801.51 678.264C799.494 678.264 797.91 679.272 797.91 681.144C798.054 683.016 798.882 683.34 801.222 684.528L803.886 685.752C807.738 687.516 809.574 689.388 809.574 692.52C809.574 696.66 806.19 699.396 801.618 699.396C797.73 699.396 794.49 697.452 792.654 694.248ZM815.107 694.248L817.807 692.196C819.391 694.5 821.299 695.976 824.035 695.976C826.483 695.976 828.139 694.68 828.139 692.664C828.139 690.972 827.131 690.252 824.647 689.1L822.019 687.876C818.563 686.292 816.475 684.456 816.475 681.288C816.475 677.4 819.859 674.844 823.963 674.844C827.311 674.844 830.155 676.536 831.631 679.092L828.967 681.144C827.707 679.272 825.979 678.264 823.963 678.264C821.947 678.264 820.363 679.272 820.363 681.144C820.507 683.016 821.335 683.34 823.675 684.528L826.339 685.752C830.191 687.516 832.027 689.388 832.027 692.52C832.027 696.66 828.643 699.396 824.071 699.396C820.183 699.396 816.943 697.452 815.107 694.248ZM852.039 699V675.24H855.855V695.58H866.727V699H852.039ZM872.834 699V681.324H876.614V699H872.834ZM872.15 674.736C872.15 673.332 873.302 672.216 874.742 672.216C876.146 672.216 877.298 673.332 877.298 674.736C877.298 676.14 876.146 677.22 874.742 677.22C873.302 677.22 872.15 676.14 872.15 674.736ZM902.96 690.18C902.96 695.4 899.252 699.396 894.32 699.396C891.728 699.396 889.46 698.388 888.128 696.552V699H884.6V672H888.38V683.484C889.712 681.864 891.836 680.928 894.284 680.928C899.288 680.928 902.96 684.924 902.96 690.18ZM899.072 690.144C899.072 686.76 896.696 684.384 893.672 684.384C890.9 684.384 888.344 686.292 888.344 690.18C888.344 694.032 890.9 695.94 893.672 695.94C896.732 695.94 899.072 693.528 899.072 690.144ZM919.947 681.324V684.672H918.795C915.807 684.672 913.611 686.436 913.611 689.568V699H909.831V681.324H913.359V683.628C914.619 682.044 916.491 681.144 918.507 681.144C919.047 681.144 919.515 681.216 919.947 681.324ZM939.539 688.308V699H936.011V697.02C934.715 698.568 932.771 699.396 930.359 699.396C926.651 699.396 924.203 697.344 924.203 694.284C924.203 691.224 926.723 689.244 930.719 689.244H935.723V688.092C935.723 685.644 934.355 684.312 931.943 684.312C929.963 684.312 928.523 685.176 927.047 686.94L924.851 684.708C926.615 682.152 929.243 680.928 932.303 680.928C936.659 680.928 939.539 683.556 939.539 688.308ZM935.723 692.304V691.98H931.187C929.171 691.98 928.055 692.7 928.055 694.14C928.055 695.616 929.315 696.48 931.151 696.48C933.707 696.48 935.723 694.716 935.723 692.304ZM957.436 681.324V684.672H956.284C953.296 684.672 951.1 686.436 951.1 689.568V699H947.32V681.324H950.848V683.628C952.108 682.044 953.98 681.144 955.996 681.144C956.536 681.144 957.004 681.216 957.436 681.324ZM975.652 681.324H979.684L971.08 701.016C969.604 704.364 967.624 705.876 964.6 705.876C963.628 705.876 962.656 705.768 961.684 705.516V702.312C962.8 702.42 963.484 702.456 963.772 702.456C965.536 702.456 966.76 701.844 967.624 699.864L968.344 698.208L961.288 681.324H965.356L970.432 694.176L975.652 681.324Z" fill="black"/>
<defs>
<filter id="filter0_d_723_280" x="117" y="53" width="940" height="700" filterUnits="userSpaceOnUse" color-interpolation-filters="sRGB">
<feFlood flood-opacity="0" result="BackgroundImageFix"/>
<feColorMatrix in="SourceAlpha" type="matrix" values="0 0 0 0 0 0 0 0 0 0 0 0 0 0 0 0 0 0 127 0" result="hardAlpha"/>
<feMorphology radius="5" operator="dilate" in="SourceAlpha" result="effect1_dropShadow_723_280"/>
<feOffset/>
<feGaussianBlur stdDeviation="5"/>
<feComposite in2="hardAlpha" operator="out"/>
<feColorMatrix type="matrix" values="0 0 0 0 0 0 0 0 0 0 0 0 0 0 0 0 0 0 0.2 0"/>
<feBlend mode="normal" in2="BackgroundImageFix" result="effect1_dropShadow_723_280"/>
<feBlend mode="normal" in="SourceGraphic" in2="effect1_dropShadow_723_280" result="shape"/>
</filter>
</defs>
</svg>
